<?xml version="1.0" encoding="UTF-8"?>
<svg width="800" height="600" viewBox="0 0 800 600" fill="none" xmlns="http://www.w3.org/2000/svg">
  <!-- Fundo com gradiente suave -->
  <rect width="800" height="600" fill="url(#grad)"/>
  
  <!-- Padrão de símbolos artísticos -->
  <g opacity="0.1" fill="#6B46C1">
    <path d="M400 250c-22.1 0-40 17.9-40 40s17.9 40 40 40 40-17.9 40-40-17.9-40-40-40z"/>
    <path d="M200 150h40v40h-40z"/>
    <path d="M600 400l20-34.6h-40z"/>
    <path d="M300 450c0 11 9 20 20 20s20-9 20-20-9-20-20-20-20 9-20 20z"/>
  </g>
  
  <!-- Texto central -->
  <text x="400" y="310" font-family="Arial" font-size="24" fill="#6B46C1" text-anchor="middle">
    Arte Nordestina
  </text>
  
  <!-- Definições de gradiente -->
  <defs>
    <linearGradient id="grad" x1="0" y1="0" x2="800" y2="600" gradientUnits="userSpaceOnUse">
      <stop offset="0%" style="stop-color:#F3F4F6"/>
      <stop offset="100%" style="stop-color:#E5E7EB"/>
    </linearGradient>
  </defs>
</svg> 